<svg width="228" height="69" viewBox="0 0 228 69" fill="none" xmlns="http://www.w3.org/2000/svg">
<g clip-path="url(#clip0_7334_211)">
<path d="M161.385 34.5V4.84984H144.176V0H187.764V4.84984H170.555V34.5H161.385Z" fill="#007852"/>
<path d="M93.6413 0H84.5248L72.3694 23.6981L59.8763 0H50.7598L48.0586 34.5H51.7727L53.9112 7.05431L68.7678 34.5H70.3435L84.975 6.28275L87.1134 34.5H96.1174L93.6413 0Z" fill="#007852"/>
<path d="M204.512 6.28275L210.693 19.0687H198.892L204.512 6.28275ZM218.673 34.5H228.001L211.367 0H203.051L187.766 34.5H192.261L196.982 23.4776H213.166L218.673 34.5Z" fill="#007852"/>
<path d="M120.286 6.28275L126.279 19.0687H114.838L120.286 6.28275ZM134.015 34.5H143.059L126.933 0H118.76L103.941 34.5H108.3L112.876 23.4776H128.567L134.015 34.5Z" fill="#007852"/>
<path d="M16.8114 6.28275L22.9756 19.0687H11.0955L16.8114 6.28275ZM30.933 34.5H40.2353L23.536 0H15.2423L0 34.5H4.48304L9.19023 23.4776H25.3292L30.933 34.5Z" fill="#007852"/>
<path d="M116.234 54.5322H119.093L125.526 62.7087V54.5322H128.528V67.8871H125.955L119.236 59.3018V67.8871H116.234V54.5322Z" fill="#1A98D3"/>
<path d="M105.206 67.8871L99.4707 54.5322H102.794L107.808 66.3608H105.852L110.942 54.5322H114L108.245 67.8871H105.206Z" fill="#1A98D3"/>
<path d="M12.2941 41.1775H0V45.6291H12.2941V41.1775Z" fill="#7F9AA5"/>
<path d="M35.7646 41.1775H14.5293V45.6291H35.7646V41.1775Z" fill="#7F9AA5"/>
<path d="M72.6471 41.1775H38V45.6291H72.6471V41.1775Z" fill="#7F9AA5"/>
<path d="M134.118 41.1775H74.8828V45.6291H134.118V41.1775Z" fill="#7F9AA5"/>
<path d="M228.001 41.1775H136.354V45.6291H228.001V41.1775Z" fill="#7F9AA5"/>
</g>
<defs>
<clipPath id="clip0_7334_211">
<rect width="228" height="69" fill="white"/>
</clipPath>
</defs>
</svg>
